<svg width="32" height="32" viewBox="0 0 32 32" fill="none" xmlns="http://www.w3.org/2000/svg">
<path d="M18.6666 24V7.99998C18.6666 7.29274 18.3857 6.61446 17.8856 6.11436C17.3855 5.61426 16.7072 5.33331 16 5.33331H5.33329C4.62605 5.33331 3.94777 5.61426 3.44767 6.11436C2.94758 6.61446 2.66663 7.29274 2.66663 7.99998V22.6666C2.66663 23.0203 2.8071 23.3594 3.05715 23.6095C3.3072 23.8595 3.64634 24 3.99996 24H6.66663" stroke="white" stroke-width="2.66667" stroke-linecap="round" stroke-linejoin="round"/>
<path d="M20 24H12" stroke="white" stroke-width="2.66667" stroke-linecap="round" stroke-linejoin="round"/>
<path d="M25.3333 24H28C28.3536 24 28.6927 23.8595 28.9428 23.6095C29.1928 23.3594 29.3333 23.0203 29.3333 22.6667V17.8C29.3328 17.4974 29.2293 17.204 29.04 16.968L24.4 11.168C24.2753 11.0119 24.1171 10.8857 23.937 10.799C23.757 10.7122 23.5598 10.667 23.36 10.6667H18.6666" stroke="white" stroke-width="2.66667" stroke-linecap="round" stroke-linejoin="round"/>
<path d="M22.6667 26.6666C24.1394 26.6666 25.3333 25.4727 25.3333 24C25.3333 22.5272 24.1394 21.3333 22.6667 21.3333C21.1939 21.3333 20 22.5272 20 24C20 25.4727 21.1939 26.6666 22.6667 26.6666Z" stroke="white" stroke-width="2.66667" stroke-linecap="round" stroke-linejoin="round"/>
<path d="M9.33329 26.6666C10.8061 26.6666 12 25.4727 12 24C12 22.5272 10.8061 21.3333 9.33329 21.3333C7.86053 21.3333 6.66663 22.5272 6.66663 24C6.66663 25.4727 7.86053 26.6666 9.33329 26.6666Z" stroke="white" stroke-width="2.66667" stroke-linecap="round" stroke-linejoin="round"/>
</svg>
